<svg width="112" height="112" viewBox="0 0 112 112" fill="none" xmlns="http://www.w3.org/2000/svg">
<path d="M96 0H16C7.16344 0 0 7.16344 0 16V96C0 104.837 7.16344 112 16 112H96C104.837 112 112 104.837 112 96V16C112 7.16344 104.837 0 96 0Z" fill="#4BAEE8"/>
<path fill-rule="evenodd" clip-rule="evenodd" d="M30.4 28C29.0745 28 28 29.0745 28 30.4V57.6C28 58.9255 29.0745 60 30.4 60H57.6C58.9255 60 60 58.9255 60 57.6V30.4C60 29.0745 58.9255 28 57.6 28H30.4ZM20 30.4C20 24.6562 24.6562 20 30.4 20H57.6C63.3438 20 68 24.6562 68 30.4V57.6C68 63.3438 63.3438 68 57.6 68H30.4C24.6562 68 20 63.3438 20 57.6V30.4Z" fill="white"/>
<path d="M81.6 48H54.4C50.8654 48 48 50.8654 48 54.4V81.6C48 85.1346 50.8654 88 54.4 88H81.6C85.1346 88 88 85.1346 88 81.6V54.4C88 50.8654 85.1346 48 81.6 48Z" fill="white"/>
<path fill-rule="evenodd" clip-rule="evenodd" d="M54.4 52C53.0745 52 52 53.0745 52 54.4V81.6C52 82.9255 53.0745 84 54.4 84H81.6C82.9255 84 84 82.9255 84 81.6V54.4C84 53.0745 82.9255 52 81.6 52H54.4ZM44 54.4C44 48.6562 48.6562 44 54.4 44H81.6C87.3438 44 92 48.6562 92 54.4V81.6C92 87.3438 87.3438 92 81.6 92H54.4C48.6562 92 44 87.3438 44 81.6V54.4Z" fill="white"/>
</svg>
